<?xml version="1.0" encoding="UTF-8"?>
<svg version="1.1" xmlns="http://www.w3.org/2000/svg" width="1280" height="1123">
<path d="M0 0 C12.7947375 12.17787864 12.7947375 12.17787864 16.08886719 17.15795898 C17.69950867 19.0885663 18.60112582 19.89318459 21.04882812 20.54866028 C23.60701161 20.75874018 26.10538005 20.77841967 28.671875 20.734375 C29.61855042 20.74247696 30.56522583 20.75057892 31.54058838 20.75892639 C33.56330259 20.77354855 35.58614597 20.77511745 37.60888672 20.76480103 C41.81791131 20.74496797 46.02526259 20.79206359 50.23400879 20.83747864 C52.31137141 20.85982187 54.38876813 20.87919813 56.46618652 20.89555359 C113.23221518 21.38236766 113.23221518 21.38236766 129 35 C132.29747244 39.04621044 135.30454029 43.1021786 137.109375 48.02734375 C138.40177346 51.39554659 139.39166898 53.48069051 142 56 C146.50260205 57.43468737 151.2761927 57.40188698 155.9609375 57.6328125 C174.44635091 58.62650037 190.55119097 69.12395452 203.125 82.0625 C218.55976633 99.60862588 222.40509629 121.28689323 221 144 C219.39949479 157.03229241 213.19923643 169.21678549 205.25 179.5 C204.83766113 180.03431641 204.42532227 180.56863281 204.00048828 181.11914062 C201.74225129 183.97871386 199.39313197 186.65402298 196.84375 189.2578125 C190.49310225 195.99827829 190.49310225 195.99827829 188.75390625 204.828125 C189.08997694 208.88207541 189.8236531 212.82114799 190.63256836 216.8034668 C191.47361541 221.83130751 191.24496815 226.9329691 190.3125 231.9375 C190.18488281 232.68902344 190.05726562 233.44054687 189.92578125 234.21484375 C187.38586455 241.85602774 182.97080673 247.70278075 177.25 253.25 C176.59878174 253.8898584 175.94756348 254.5297168 175.27661133 255.18896484 C168.03387715 262.15362899 160.11714657 268.1046935 152 274 C150.55287058 275.06831338 149.10625719 276.1373261 147.66015625 277.20703125 C137.78589106 284.46571331 127.668886 291.33981762 117.44921875 298.1015625 C116.27830688 298.88527222 116.27830688 298.88527222 115.08374023 299.68481445 C113 301 113 301 110.015625 302.33203125 C106.64182756 305.12391401 106.6636888 308.88416097 106.0625 313.0625 C105.73993463 314.96817347 105.41290129 316.87309461 105.08203125 318.77734375 C104.91010254 319.78780762 104.73817383 320.79827148 104.56103516 321.83935547 C101.57154765 338.68091565 97.54164652 354.61063922 90 370 C89.64534668 370.73009277 89.29069336 371.46018555 88.92529297 372.21240234 C77.82026499 394.77713981 62.74574977 414.28324656 45 432 C44.42378906 432.62261719 43.84757813 433.24523437 43.25390625 433.88671875 C36.44916679 441.13148755 28.23217156 446.51188563 20 452 C38.47613312 470.76676892 62.4144677 480.8641465 87 489 C86.98428955 488.44876465 86.9685791 487.8975293 86.95239258 487.32958984 C85.93002789 445.47734446 96.86868245 405.48982117 125.76953125 374.30078125 C141.31599499 358.26423634 159.44126589 349.8896098 181 345 C183.66988762 344.34553643 186.33486334 343.67367091 189 343 C188.54109375 342.14019531 188.0821875 341.28039062 187.609375 340.39453125 C175.41388915 317.09048347 171.51281061 289.54581743 179.31542969 264.06445312 C187.29663607 239.99559395 203.95727719 219.63498614 226 207 C226.91265625 206.47535156 227.8253125 205.95070313 228.765625 205.41015625 C246.16239803 196.07008548 268.00655908 191.31657899 287.296875 197.03515625 C298.11405112 200.89620033 306.47135319 206.67362448 311.9375 217.0625 C319.31191121 233.69306872 315.94799955 251.91521347 311.46484375 268.94140625 C304.1060895 297.26007297 305.96043132 323.43379056 315 351 C315.22558594 351.90621094 315.45117188 352.81242187 315.68359375 353.74609375 C317.70812201 357.21242255 320.96011109 358.26790924 324.5 359.8125 C331.49884672 363.07200092 337.18601904 366.88455649 343 372 C343.80179688 372.60070312 344.60359375 373.20140625 345.4296875 373.8203125 C348.55350141 376.46938266 350.94458947 379.39108396 353.4375 382.625 C353.92049561 383.24963135 354.40349121 383.8742627 354.90112305 384.51782227 C379.10285346 416.22327048 382.58422956 459.9313856 377.875 498.375 C371.34550893 546.33605138 351.45289545 587.55565701 312.61108398 617.24267578 C290.45068369 633.70236179 267.87648309 642.14312114 241 648 C239.96343262 648.22880859 238.92686523 648.45761719 237.85888672 648.69335938 C205.02265537 655.66951573 169.6581659 655.26886454 140.25 637.75 C124.25188992 626.96448735 113.60828474 612.05376505 105 595 C105 594.34 105 593.68 105 593 C104.41927734 593.15702393 103.83855469 593.31404785 103.24023438 593.47583008 C82.43067847 598.34484888 57.47446132 593.98303127 38 586 C38.01571045 586.69222656 38.0314209 587.38445313 38.04760742 588.09765625 C38.88394243 630.95188533 30.04906379 672.46022745 11 711 C10.45907715 712.10045654 10.45907715 712.10045654 9.90722656 713.22314453 C-7.01964205 747.28219418 -32.55472044 780.03703491 -63 803 C-64.17274085 803.92338055 -65.34454725 804.84794863 -66.515625 805.7734375 C-76.79488308 813.79815167 -87.65555487 820.58725255 -99 827 C-99.79841309 827.45149414 -100.59682617 827.90298828 -101.41943359 828.36816406 C-140.49046522 850.21450514 -185.38626646 861.21028839 -230.0625 861.25 C-230.754646 861.25067474 -231.44679199 861.25134949 -232.15991211 861.25204468 C-304.60142227 861.14124934 -372.69424189 831.13897669 -423.875 780.375 C-429.65919669 774.55021504 -434.96418655 768.4875795 -440 762 C-440.87707127 760.91127961 -441.75607968 759.82411777 -442.63671875 758.73828125 C-448.56140034 751.38594051 -453.95386787 743.80168344 -459.1015625 735.88671875 C-460.72233278 733.21024658 -460.72233278 733.21024658 -462 732 C-462.56847656 732.7734375 -463.13695312 733.546875 -463.72265625 734.34375 C-477.57328018 753.02706241 -493.82729142 767.07875697 -515 777 C-515.66 777 -516.32 777 -517 777 C-516.83918945 777.52674316 -516.67837891 778.05348633 -516.51269531 778.59619141 C-515.48257411 783.42598825 -515.7740513 788.42987456 -515.75976562 793.35009766 C-515.75019878 795.33378205 -515.71907741 797.31732514 -515.6875 799.30078125 C-515.59034637 823.61347812 -524.59660681 844.0884472 -541.328125 861.328125 C-567.49194342 887.49194342 -608.40825737 905.82583084 -645 910 C-645.85980469 910.10957031 -646.71960938 910.21914062 -647.60546875 910.33203125 C-689.3040402 914.95151849 -732.11400052 903.93352936 -765 878 C-765.54333984 877.57380371 -766.08667969 877.14760742 -766.64648438 876.70849609 C-781.47556959 864.94828368 -794.9019531 851.3310874 -806 836 C-806.76441406 834.95714844 -807.52882813 833.91429687 -808.31640625 832.83984375 C-822.07957588 813.52353438 -832.19232608 793.04259286 -838 770 C-838.24621094 769.02546875 -838.49242187 768.0509375 -838.74609375 767.046875 C-843.59158851 743.65483132 -839.04821202 719.89725856 -827.33203125 699.33984375 C-826.89246094 698.56769531 -826.45289063 697.79554688 -826 697 C-825.62456055 696.38294189 -825.24912109 695.76588379 -824.86230469 695.13012695 C-823.78475352 692.46828268 -824.08581269 691.31394288 -824.87109375 688.578125 C-825.11190674 687.72565186 -825.35271973 686.87317871 -825.60083008 685.99487305 C-825.87693115 685.08906494 -826.15303223 684.18325684 -826.4375 683.25 C-826.8564856 681.8419812 -826.8564856 681.8419812 -827.28393555 680.40551758 C-833.12622139 661.35204887 -842.26392338 640.08374332 -857.6171875 626.8359375 C-862.64397222 622.49761005 -867.35462136 617.86699656 -872.0625 613.1875 C-872.92166016 612.34896484 -873.78082031 611.51042969 -874.66601562 610.64648438 C-885.77991481 599.60050818 -894.8485434 587.35957184 -895.375 571.25 C-895.16282757 558.7450872 -889.78554342 549.03743444 -881.5 539.9375 C-876.09745779 534.75230145 -869.60979921 531.38035393 -863 528 C-862.20078125 527.5875 -861.4015625 527.175 -860.578125 526.75 C-837.53933659 516.2926776 -809.37269056 517.8513491 -786.0625 526.3125 C-775.27398306 530.84920969 -765.86100115 536.36120591 -757 544 C-756.31421875 544.54140625 -755.6284375 545.0828125 -754.921875 545.640625 C-734.29589637 562.36878089 -726.58062005 588.84832745 -723 614 C-722.18660156 613.61328125 -721.37320313 613.2265625 -720.53515625 612.828125 C-694.64243635 601.06135465 -665.86342535 599.79823218 -639.04736328 609.72265625 C-613.06700972 619.91755959 -589.83401411 636.6202296 -573 659 C-572.42475586 659.75925781 -571.84951172 660.51851562 -571.25683594 661.30078125 C-569.30768827 663.88114756 -567.37007012 666.46969757 -565.4375 669.0625 C-564.80465088 669.9088501 -564.17180176 670.7552002 -563.51977539 671.62719727 C-562.64180298 672.81913696 -562.64180298 672.81913696 -561.74609375 674.03515625 C-561.21685303 674.7506665 -560.6876123 675.46617676 -560.14233398 676.20336914 C-559 678 -559 678 -559 680 C-539.77960168 661.98087658 -528.45721912 636.82708318 -521 612 C-522.30710937 612.03480469 -523.61421875 612.06960938 -524.9609375 612.10546875 C-569.01487301 612.92774243 -618.14314919 594.64928065 -650 564 C-651.5583075 562.64101091 -653.12077184 561.28677258 -654.6875 559.9375 C-658.2010651 556.82530877 -661.281818 553.52688009 -664.30859375 549.9453125 C-666.51794404 547.40430455 -668.89855297 545.07132017 -671.32421875 542.73828125 C-673 541 -673 541 -674.50195312 538.44482422 C-678.22324645 534.80281569 -681.60974579 535.20842447 -686.64453125 535.14453125 C-688.07520935 535.09682587 -688.07520935 535.09682587 -689.53479004 535.04815674 C-691.57257695 534.98260711 -693.61073389 534.92783256 -695.64907837 534.88284302 C-699.87267384 534.78892558 -704.09385838 534.64189666 -708.31596375 534.49705505 C-710.38953484 534.4263558 -712.46319685 534.35827231 -714.53694153 534.29286194 C-767.36604422 532.60843706 -767.36604422 532.60843706 -781 519 C-782.65251611 516.80207217 -784.12892569 514.70089789 -785.5625 512.375 C-785.945271 511.76688477 -786.32804199 511.15876953 -786.72241211 510.53222656 C-795 497.11555583 -795 497.11555583 -795 492 C-795.99966797 491.74150269 -795.99966797 491.74150269 -797.01953125 491.4777832 C-816.02524685 486.44558805 -834.02464544 480.06799443 -849 467 C-849.61488281 466.48050781 -850.22976563 465.96101562 -850.86328125 465.42578125 C-862.78398936 454.54642235 -871.05802523 437.16188527 -872.20532227 421.13110352 C-872.30370313 417.98065134 -872.32205702 414.83940597 -872.3125 411.6875 C-872.32861328 410.63626953 -872.34472656 409.58503906 -872.36132812 408.50195312 C-872.36786814 397.86135079 -870.20048587 388.2420546 -865.25 378.8125 C-864.90219482 378.13469482 -864.55438965 377.45688965 -864.19604492 376.75854492 C-858.50526569 365.9598939 -850.44574655 358.22372228 -841.40234375 350.18359375 C-840.21318359 349.10271484 -840.21318359 349.10271484 -839 348 C-838.23300781 347.31679688 -837.46601562 346.63359375 -836.67578125 345.9296875 C-836.12277344 345.29289062 -835.56976562 344.65609375 -835 344 C-835.18080452 340.88016066 -835.18080452 340.88016066 -835.6171875 338.59765625 C-837.10060784 328.53158964 -837.07164528 319.4351995 -831 311 C-828.17497398 307.48101208 -825.15044215 304.22829492 -822 301 C-820.96552734 299.89011719 -820.96552734 299.89011719 -819.91015625 298.7578125 C-813.53428319 292.08511109 -806.34622489 286.54093108 -799 281 C-798.29053223 280.46213867 -797.58106445 279.92427734 -796.85009766 279.37011719 C-787.56134846 272.35032899 -778.10734909 265.61058082 -768.4375 259.125 C-767.52669678 258.51164795 -766.61589355 257.8982959 -765.67749023 257.26635742 C-764.83387939 256.7066626 -763.99026855 256.14696777 -763.12109375 255.5703125 C-762.3727124 255.07289551 -761.62433105 254.57547852 -760.85327148 254.06298828 C-759 253 -759 253 -757 253 C-756.95319092 252.34080566 -756.90638184 251.68161133 -756.8581543 251.00244141 C-755.4923869 233.88141025 -751.60227455 216.86487737 -745 201 C-744.72349609 200.3301709 -744.44699219 199.6603418 -744.16210938 198.97021484 C-736.50098622 180.79882624 -725.6962234 164.04346137 -713 149 C-712.24323975 148.09314453 -712.24323975 148.09314453 -711.47119141 147.16796875 C-666.82305602 93.73954041 -589.94342284 63.02874921 -527 36 C-525.95193176 35.54880798 -525.95193176 35.54880798 -524.88269043 35.08850098 C-487.77769781 19.13459833 -449.71519881 5.49519292 -411 -6 C-410.26364319 -6.21873779 -409.52728638 -6.43747559 -408.76861572 -6.6628418 C-329.80285582 -30.028196 -248.14892224 -43.2243538 -166 -48 C-165.06913574 -48.05784668 -164.13827148 -48.11569336 -163.17919922 -48.17529297 C-104.07121592 -51.80029577 -45.04957158 -41.81955275 0 0 Z " fill="#1E1854" transform="translate(898,196)"/>
<path d="M0 0 C1.51246906 -0.01596399 3.02489103 -0.03786533 4.53717041 -0.06665039 C20.06040787 -0.33370357 34.07896839 2.75971053 48.19961548 9.35046387 C49.71219778 10.01942505 51.22525757 10.68730719 52.73867798 11.35437012 C71.84021141 19.91168994 85.80521711 32.42992896 99.19961548 48.35046387 C100.39070923 49.70784668 100.39070923 49.70784668 101.60586548 51.09265137 C139.02431942 93.97911187 165.21216286 149.83134879 166.19961548 207.35046387 C166.22539673 208.51190918 166.25117798 209.67335449 166.27774048 210.86999512 C166.64807649 229.59048043 166.07163816 247.8020988 163.19961548 266.35046387 C163.01737427 267.54671387 162.83513306 268.74296387 162.64736938 269.97546387 C162.06540855 273.70934793 161.45281084 277.43659511 160.82461548 281.16296387 C160.64003784 282.28936279 160.45546021 283.41576172 160.26528931 284.57629395 C155.47861517 311.33842438 137.55684543 337.69383686 116.19961548 354.35046387 C112.01974247 357.16938927 107.71757008 359.77162391 103.38711548 362.35046387 C102.14854843 363.09477932 100.91002384 363.83916543 99.67153931 364.58361816 C81.23020269 375.62281272 62.3586026 385.87593516 43.25820923 395.72546387 C40.29376306 397.2555006 37.34375974 398.80243069 34.42227173 400.41296387 C-16.11490638 428.19972847 -71.74539263 447.56979585 -126.48007202 465.12780762 C-127.36186127 465.4124437 -128.24365051 465.69707977 -129.15216064 465.99034119 C-136.69796583 468.39340723 -144.32966953 470.32578641 -152.02694702 472.17468262 C-156.52864017 473.26432786 -160.97399812 474.51088132 -165.42538452 475.78796387 C-190.4411445 482.82252873 -215.98565188 487.34870943 -241.53536987 491.940979 C-244.48761363 492.47470585 -247.43679897 493.0245837 -250.38632202 493.57312012 C-293.8783781 501.46545662 -339.19790122 505.48355896 -383.36636353 505.94454956 C-385.23721492 505.96469083 -387.10799834 505.99372729 -388.97854614 506.0329895 C-415.04840746 506.51532116 -444.80996095 496.23388114 -463.96835327 478.12780762 C-464.90292358 477.21128418 -465.8374939 476.29476074 -466.80038452 475.35046387 C-467.40962769 474.76023437 -468.01887085 474.17000488 -468.64657593 473.56188965 C-476.89850759 465.55366064 -484.79218975 457.48895618 -491.80038452 448.35046387 C-492.8139494 447.06470969 -493.82833548 445.77960263 -494.84335327 444.49499512 C-511.33069326 423.47021399 -524.34617173 400.92060064 -534.80038452 376.35046387 C-535.2824939 375.2354248 -535.76460327 374.12038574 -536.26132202 372.97155762 C-554.37208068 328.73285733 -555.98398988 273.93999768 -546.44540405 227.49987793 C-545.86417938 224.66195275 -545.34888428 221.82245251 -544.85897827 218.96765137 C-541.25961067 199.13158724 -529.74624001 181.48715644 -516.80038452 166.35046387 C-516.06819702 165.48421387 -515.33600952 164.61796387 -514.58163452 163.72546387 C-507.65478829 155.75484628 -499.97784198 150.25380256 -490.92538452 144.91296387 C-490.06880249 144.40418701 -489.21222046 143.89541016 -488.3296814 143.37121582 C-485.4907422 141.69046467 -482.64625508 140.01944936 -479.80038452 138.35046387 C-478.80619507 137.76555176 -477.81200562 137.18063965 -476.78768921 136.57800293 C-438.30391848 113.98414828 -398.73352276 94.07767641 -357.80038452 76.35046387 C-356.87154953 75.92128159 -356.87154953 75.92128159 -355.9239502 75.48342896 C-352.55571167 73.95362135 -350.58214161 73.35046387 -346.80038452 73.35046387 C-346.62499146 73.94770264 -346.44959839 74.54494141 -346.26889038 75.16027832 C-336.36103667 108.72886983 -325.46852079 137.95029967 -293.57040405 156.06237793 C-277.86492288 164.57830239 -262.73929252 167.51804294 -244.98788452 167.60046387 C-243.88895874 167.62108887 -242.79003296 167.64171387 -241.6578064 167.66296387 C-233.94501725 167.69932351 -227.1748004 166.57798869 -219.80038452 164.35046387 C-218.55386108 163.97405762 -217.30733765 163.59765137 -216.02304077 163.20983887 C-204.07878427 159.0167995 -193.45592239 153.57555168 -183.80038452 145.35046387 C-183.06304077 144.75749512 -182.32569702 144.16452637 -181.56600952 143.55358887 C-175.22084188 138.25865587 -170.47930967 132.13357357 -165.80038452 125.35046387 C-165.25511108 124.57187012 -164.70983765 123.79327637 -164.14804077 122.99108887 C-151.40661948 103.38890227 -146.31021548 77.96099431 -150.71444702 55.01062012 C-151.87576894 49.73335728 -153.31076701 44.54300583 -154.80038452 39.35046387 C-155.35697057 37.35583854 -155.9129472 35.36104308 -156.46835327 33.36608887 C-157.87660047 28.3501925 -159.32322987 23.34647476 -160.80038452 18.35046387 C-157.40890718 16.08947897 -154.97707991 15.61906277 -150.98788452 14.85046387 C-149.78518921 14.61327637 -148.5824939 14.37608887 -147.34335327 14.13171387 C-142.46014254 13.25359014 -137.54899036 12.57904887 -132.63607788 11.89050293 C-129.42226979 11.43802101 -126.21097433 10.97148666 -123.00036621 10.49693298 C-82.26734515 4.4930046 -41.19737567 0.40297022 0 0 Z " fill="#1E1854" transform="translate(764.8003845214844,224.6495361328125)"/>
<path d="M0 0 C1.24040039 0.12358887 2.48080078 0.24717773 3.75878906 0.37451172 C93.48672508 9.704679 180.42781839 40.93854974 300.28076172 124.58496094 C301.81171112 125.84502665 303.35980647 127.08419469 304.91015625 128.3203125 C311.73964275 133.77183192 318.08813049 139.66205037 324.4375 145.65625 C327.26695259 148.32487055 330.14475227 150.92777503 333.0625 153.5 C341.57778313 161.11818809 349.84797782 169.22105858 357.23046875 177.94921875 C359.11824114 180.13703443 361.07543661 182.2535911 363.04296875 184.36962891 C367.99843362 189.70206782 372.66475843 195.14076566 377 201 C372.84737407 202.38420864 369.79761251 200.9486686 365.75 199.75 C349.30321484 195.22110704 332.67667546 193.92002072 315.70419312 193.00790405 C313.257918 192.87542879 310.81223266 192.73434499 308.36645508 192.59301758 C298.70378868 192.05082649 298.70378868 192.05082649 289.03515625 192.2890625 C281.72332804 192.69262335 277.16034797 192.37596839 271.47265625 187.390625 C267.50982101 183.54046108 263.85429532 179.43049493 260.17333984 175.31347656 C249.08188677 163.50684779 234.17833888 155.46844837 220 148 C219.27876953 147.62004883 218.55753906 147.24009766 217.81445312 146.84863281 C202.11812343 138.73113152 185.10747308 132.70373348 168.0625 128.125 C167.07467529 127.85683472 167.07467529 127.85683472 166.06689453 127.58325195 C151.1946397 123.82855267 136.66155076 122.48699003 121.375 122.625 C120.01187683 122.63098206 120.01187683 122.63098206 118.62121582 122.63708496 C41.22433013 123.02752327 -36.81394968 133.98334273 -112 152 C-113.22460938 152.2877832 -114.44921875 152.57556641 -115.7109375 152.87207031 C-188.4537098 170.01804081 -258.52959212 196.05486616 -326 228 C-327.16756836 228.55220215 -328.33513672 229.1044043 -329.53808594 229.67333984 C-365.03864088 246.50507832 -399.4969025 265.37473857 -432.75 286.3125 C-433.63083252 286.86301025 -434.51166504 287.41352051 -435.41918945 287.98071289 C-452.5251665 298.86751869 -467.60126367 312.99749402 -480 329 C-480.52400391 329.67466309 -481.04800781 330.34932617 -481.58789062 331.04443359 C-490.41864168 342.50170232 -498.14346798 354.2644513 -505 367 C-505.37350586 367.68658691 -505.74701172 368.37317383 -506.13183594 369.08056641 C-515.0160594 385.55858993 -520.49408387 402.11924654 -523.78369141 420.56933594 C-525.81422186 431.26596056 -525.81422186 431.26596056 -531 435 C-531.66612305 435.48855469 -532.33224609 435.97710937 -533.01855469 436.48046875 C-535.4226459 438.2169283 -537.86216931 439.89199954 -540.3125 441.5625 C-578.68290371 466.5114373 -578.68290371 466.5114373 -604 503 C-604.66 503 -605.32 503 -606 503 C-597.58169094 408.11721573 -563.80137469 317.29095216 -483 202 C-482.08433812 200.91040602 -481.1689911 199.82054739 -480.25390625 198.73046875 C-468.20946874 184.41117577 -455.75759714 170.57715111 -442.5012207 157.37084961 C-440.79976222 155.67480274 -439.10378737 153.97340179 -437.40820312 152.27148438 C-431.77327842 146.63281588 -426.08337005 141.15850203 -420 136 C-418.84285517 134.97904708 -417.68788481 133.95562409 -416.53515625 132.9296875 C-408.05118102 125.44247009 -399.29265853 118.43073584 -390.22558594 111.66357422 C-387.97907349 109.98435792 -385.74334081 108.29145796 -383.5078125 106.59765625 C-309.40433182 50.81720056 -219.47593382 14.70819063 -105 0 C-103.87368164 -0.11859375 -102.74736328 -0.2371875 -101.58691406 -0.359375 C-68.13019321 -3.75251059 -33.44623988 -3.35385054 0 0 Z " fill="#FED600" transform="translate(649,5)"/>
<path d="M0 0 C2.77715462 -0.00975638 5.55358217 -0.04094809 8.33056641 -0.07226562 C24.43674282 -0.17031176 38.92366582 1.86687345 54.15478516 7.36523438 C55.26120361 7.758479 56.36762207 8.15172363 57.50756836 8.55688477 C77.6119952 15.85609228 95.89687429 25.15852736 111.27978516 40.24023438 C111.91706543 40.85850098 112.5543457 41.47676758 113.2109375 42.11376953 C120.9327189 49.6209104 128.54622904 57.09906667 135.18994141 65.59179688 C137.12623204 68.04563809 139.14454587 70.40630002 141.19970703 72.76074219 C171.83988129 108.06355166 192.51054683 151.59430878 203.46728516 196.80273438 C203.8245166 198.22573853 203.8245166 198.22573853 204.18896484 199.67749023 C208.81082373 219.61857495 209.78219399 240.0960766 209.67089844 260.49169922 C209.65472489 264.00332048 209.67091766 267.51380229 209.68994141 271.02539062 C209.70371053 285.34515068 208.65345261 299.12340993 206.27978516 313.24023438 C206.05716861 314.62037043 205.83496835 316.00057372 205.61328125 317.38085938 C205.03327613 320.88208172 204.41571241 324.3737886 203.77978516 327.86523438 C203.48007813 329.56873047 203.48007813 329.56873047 203.17431641 331.30664062 C199.57487537 351.32136687 199.57487537 351.32136687 195.09228516 360.55273438 C194.79040283 361.17462646 194.48852051 361.79651855 194.17749023 362.43725586 C193.22595757 364.3791045 192.25467014 366.31002078 191.27978516 368.24023438 C190.96879883 368.86865234 190.6578125 369.49707031 190.33740234 370.14453125 C183.38442278 384.13713186 174.45269469 396.39739999 164.27978516 408.24023438 C163.43802734 409.22894531 162.59626953 410.21765625 161.72900391 411.23632812 C142.30895663 433.56866957 112.87840833 447.23753436 87.27978516 461.24023438 C86.2364502 461.81338379 85.19311523 462.3865332 84.11816406 462.97705078 C55.78719291 478.5133898 26.93720619 492.45674491 -2.72021484 505.24023438 C-3.37139282 505.52102844 -4.0225708 505.80182251 -4.69348145 506.09112549 C-23.09487189 514.0089144 -41.76301242 521.11332307 -60.57472229 527.98233032 C-64.77594236 529.51822787 -68.96396068 531.08562536 -73.14616394 532.67253113 C-79.11884392 534.93575532 -85.06580147 537.07975294 -91.22021484 538.80273438 C-92.65807619 539.21162208 -94.09556868 539.62180878 -95.53271484 540.03320312 C-96.23525391 540.23349121 -96.93779297 540.4337793 -97.66162109 540.64013672 C-100.86616673 541.57428914 -104.04103868 542.59856033 -107.22021484 543.61523438 C-117.28375761 546.80350722 -127.46517923 549.5794358 -137.640625 552.38476562 C-140.41505872 553.1554661 -143.18358111 553.94370074 -145.95068359 554.74023438 C-173.62893757 562.62808267 -201.91912218 568.16912235 -230.29736328 572.84118652 C-232.88917513 573.26806243 -235.48046839 573.69801218 -238.07177734 574.12792969 C-290.74496308 582.84168739 -290.74496308 582.84168739 -314.86474609 584.02929688 C-317.65528772 584.17361254 -317.65528772 584.17361254 -320.09164429 584.72911072 C-322.63086945 585.22286123 -325.05284707 585.47062782 -327.6328125 585.62915039 C-329.06456314 585.71907005 -329.06456314 585.71907005 -330.52523804 585.81080627 C-331.55122101 585.87130661 -332.57720398 585.93180695 -333.63427734 585.99414062 C-334.70884186 586.05967636 -335.78340637 586.1252121 -336.89053345 586.19273376 C-400.68912185 590.02809403 -400.68912185 590.02809403 -425.72021484 583.24023438 C-426.5062207 583.03156738 -427.29222656 582.82290039 -428.10205078 582.60791016 C-458.3684962 574.29752966 -485.34095397 557.2454737 -505.72802734 533.50585938 C-508.03903182 530.87765821 -510.44467935 528.34938942 -512.84521484 525.80273438 C-519.12796391 519.03753655 -524.65204852 511.73064938 -530.15771484 504.32910156 C-531.59877049 502.40259029 -533.06113446 500.49502691 -534.53271484 498.59179688 C-582.43550346 435.96099796 -597.89549348 355.80871694 -587.76293945 278.85205078 C-586.45227502 269.23181925 -584.76560366 259.73156253 -582.72021484 250.24023438 C-582.54482178 249.42449951 -582.36942871 248.60876465 -582.1887207 247.76831055 C-576.47769421 222.09441668 -562.78205041 199.97181759 -545.72021484 180.24023438 C-545.00349609 179.40105469 -544.28677734 178.561875 -543.54833984 177.69726562 C-534.7075336 167.58676913 -525.21039444 159.40419664 -513.65771484 152.55273438 C-512.53284668 151.87412354 -511.40797852 151.1955127 -510.24902344 150.49633789 C-506.75125947 148.39076759 -503.23702774 146.31377701 -499.72021484 144.24023438 C-498.63659668 143.59860352 -497.55297852 142.95697266 -496.43652344 142.29589844 C-421.16466843 97.86451549 -339.39723691 60.66641444 -254.72021484 38.24023438 C-253.31642578 37.86608398 -253.31642578 37.86608398 -251.88427734 37.484375 C-245.17198958 35.70059774 -238.4497038 33.9578878 -231.72021484 32.24023438 C-230.98464355 32.05219238 -230.24907227 31.86415039 -229.49121094 31.67041016 C-192.64893249 22.28131551 -155.44078202 14.15411745 -117.72021484 9.24023438 C-116.80073059 9.11970703 -115.88124634 8.99917969 -114.93389893 8.875 C-89.74848326 5.58453146 -64.61800443 2.549986 -39.23339844 1.41259766 C-36.08353364 1.25805947 -32.93905969 1.05943953 -29.79249573 0.84950256 C-19.86276379 0.20342521 -9.9494142 0.02103841 0 0 Z M-126.72021484 52.24023438 C-127.99590332 52.43149902 -129.2715918 52.62276367 -130.5859375 52.81982422 C-134.06971479 53.34652223 -137.55167853 53.88323795 -141.03271484 54.42773438 C-142.52641602 54.65976563 -142.52641602 54.65976563 -144.05029297 54.89648438 C-149.07058649 55.70677736 -153.86591662 56.72033686 -158.72021484 58.24023438 C-158.1795185 60.28215823 -157.63755402 62.32374625 -157.09521484 64.36523438 C-156.92207764 65.01741943 -156.74894043 65.66960449 -156.57055664 66.34155273 C-155.45162581 70.54128923 -154.31129058 74.73454451 -153.15380859 78.92382812 C-152.88584473 79.89626465 -152.61788086 80.86870117 -152.34179688 81.87060547 C-151.81012208 83.79740518 -151.2760152 85.72353576 -150.73925781 87.64892578 C-143.92816723 112.36852556 -147.62141522 138.13795139 -160.01318359 160.51757812 C-173.35659068 183.3443064 -194.34374231 198.95755371 -219.72021484 206.24023438 C-227.34722719 208.21134595 -234.67765713 208.5578023 -242.53271484 208.49023438 C-244.26400635 208.47790771 -244.26400635 208.47790771 -246.03027344 208.46533203 C-272.49250081 208.11719408 -294.92872625 197.94338575 -314.25146484 179.87304688 C-329.1664186 164.27536636 -336.90270408 144.02337437 -341.93115234 123.36914062 C-342.71436307 120.26343869 -343.67082988 117.26520059 -344.72021484 114.24023438 C-349.03331221 114.81995822 -352.64479974 115.86662075 -356.63818359 117.58398438 C-357.79181396 118.07938721 -358.94544434 118.57479004 -360.1340332 119.08520508 C-361.39230526 119.63601842 -362.65018748 120.18772299 -363.90771484 120.74023438 C-364.55692902 121.02345551 -365.20614319 121.30667664 -365.87503052 121.59848022 C-382.73468977 128.96665094 -399.2658252 137.01303955 -415.72021484 145.24023438 C-416.41493896 145.58759644 -417.10966309 145.9349585 -417.82543945 146.29284668 C-434.99177211 154.89216006 -451.78026337 163.94193839 -468.27148438 173.7890625 C-471.56119844 175.73861987 -474.88721758 177.61565773 -478.22021484 179.49023438 C-480.39056441 180.73382884 -482.55714968 181.98401244 -484.72021484 183.24023438 C-485.67782715 183.79541748 -485.67782715 183.79541748 -486.65478516 184.36181641 C-508.26238375 197.00499999 -522.72985445 214.42583921 -534.72021484 236.24023438 C-535.45498047 237.51253906 -535.45498047 237.51253906 -536.20458984 238.81054688 C-540.75804668 247.55205969 -542.30592621 257.49474605 -544.12060547 267.09228516 C-544.50632862 269.11733167 -544.90745053 271.13953762 -545.32763672 273.15771484 C-554.17734546 316.1078177 -551.71418497 368.20454241 -535.72021484 409.24023438 C-535.2078125 410.55628662 -535.2078125 410.55628662 -534.68505859 411.89892578 C-523.67685705 439.82524045 -509.31897367 465.54159841 -490.02685547 488.67333984 C-488.68709599 490.27994977 -487.36814764 491.90237083 -486.04833984 493.52539062 C-474.30604924 507.77168818 -461.47652778 522.96181786 -444.72021484 531.24023438 C-444.09501953 531.56491699 -443.46982422 531.88959961 -442.82568359 532.22412109 C-428.56756419 539.61965536 -412.49909924 546.32517104 -396.27880859 546.47851562 C-395.4253183 546.48830948 -394.571828 546.49810333 -393.69247437 546.50819397 C-356.07654548 546.84620266 -318.9215586 543.62992074 -281.59521484 539.17773438 C-280.0397142 538.99232086 -280.0397142 538.99232086 -278.45278931 538.80316162 C-266.12755474 537.31739814 -253.92415858 535.5085662 -241.72021484 533.24023438 C-239.1829036 532.79625346 -236.64514555 532.35481794 -234.10693359 531.91601562 C-196.37971133 525.28003628 -158.66297617 517.16819014 -122.27954102 505.07202148 C-119.47218303 504.15962345 -116.65103656 503.30228602 -113.82568359 502.44726562 C-88.08223404 494.56178305 -62.58610406 485.55736734 -37.72021484 475.24023438 C-37.08265259 474.97700378 -36.44509033 474.71377319 -35.78820801 474.44256592 C5.12841845 457.5449286 44.9274257 438.3607652 83.27978516 416.24023438 C84.49882501 415.53932598 85.71790205 414.83848227 86.93701172 414.13769531 C90.16956216 412.2778028 93.39705854 410.40936898 96.621521 408.53549194 C97.87065646 407.81036211 99.12082265 407.08700425 100.37213135 406.3656311 C124.813455 392.25823278 140.63281261 374.66693674 154.27978516 350.24023438 C154.78380859 349.36625 155.28783203 348.49226563 155.80712891 347.59179688 C160.51752452 338.51462114 161.63520823 328.21593428 163.27978516 318.24023438 C163.45928711 317.1820752 163.63878906 316.12391602 163.82373047 315.03369141 C164.38039366 311.74976852 164.92658847 308.46432206 165.46728516 305.17773438 C165.63429932 304.1682373 165.80131348 303.15874023 165.97338867 302.11865234 C167.94401968 289.75530084 168.45511215 277.54782882 168.40478516 265.05273438 C168.40256958 264.32079865 168.400354 263.58886292 168.39807129 262.83474731 C168.2092237 209.64291728 153.46968645 159.74567938 122.27978516 116.24023438 C121.78478516 115.54849121 121.28978516 114.85674805 120.77978516 114.14404297 C111.06522134 100.67583747 100.30864714 88.16484256 88.93994141 76.07226562 C87.42817894 74.46282687 85.92742902 72.84241293 84.46337891 71.18945312 C75.34812889 61.25177453 62.2565126 55.39959753 50.12158203 50.05224609 C48.59984638 49.38134302 47.08697627 48.69037016 45.57666016 47.99414062 C32.33924336 42.20839893 18.67712989 40.59357142 4.40478516 40.86523438 C2.8353742 40.88179938 1.2659565 40.8977347 -0.3034668 40.91308594 C-42.66177965 41.44758585 -84.86449453 45.92541262 -126.72021484 52.24023438 Z " fill="#FDFDFE" transform="translate(762.72021484375,183.759765625)"/>
<path d="M0 0 C2.33873085 7.66502868 4.67119382 15.33195043 7 23 C7.41572266 24.36729248 7.41572266 24.36729248 7.83984375 25.76220703 C9.58275588 31.50146059 11.3028388 37.24705259 13 43 C13.33644531 44.13381104 13.33644531 44.13381104 13.6796875 45.29052734 C17.15209697 57.06863389 19.89083507 68.90205278 22 81 C22.22816406 82.28132812 22.45632813 83.56265625 22.69140625 84.8828125 C30.82283615 140.26751684 15.92186647 202.74068057 -17 248 C-17.69480469 248.96679688 -18.38960937 249.93359375 -19.10546875 250.9296875 C-33.47699438 270.51566048 -50.21330372 288.78600604 -70 303 C-71.04027344 303.76183594 -72.08054687 304.52367187 -73.15234375 305.30859375 C-108.56418161 330.56524449 -152.97590683 347.97419065 -196.828125 348.203125 C-198.18344582 348.21357849 -198.18344582 348.21357849 -199.56614685 348.22424316 C-202.46081258 348.24152058 -205.35528488 348.24796107 -208.25 348.25 C-209.73048325 348.25151062 -209.73048325 348.25151062 -211.24087524 348.25305176 C-225.36918627 348.24328064 -239.12351783 347.89631776 -253 345 C-254.05453369 344.79914795 -254.05453369 344.79914795 -255.13037109 344.59423828 C-310.36100679 334.00012658 -362.88170441 300.41672629 -396 255 C-396.76699219 253.95457031 -397.53398437 252.90914062 -398.32421875 251.83203125 C-416.90230596 225.73192618 -429.02707656 196.8804346 -437.328125 166.05859375 C-439.0513858 159.69725924 -441.0261436 153.43035752 -443.13525391 147.18701172 C-444.69701171 142.44296833 -445.51867459 137.97556148 -446 133 C-442.25452518 131.8698742 -438.47786744 131.67132621 -434.59765625 131.421875 C-433.0723741 131.3156366 -431.54714851 131.20858378 -430.02197266 131.10083008 C-429.2159259 131.04440338 -428.40987915 130.98797668 -427.57940674 130.92984009 C-372.35375303 126.98381131 -317.39674704 116.93359247 -263.625 103.9375 C-262.78566925 103.73562073 -261.9463385 103.53374146 -261.08157349 103.32574463 C-249.38256709 100.49900947 -237.86302656 97.24427466 -226.3576355 93.71536255 C-223.46129608 92.83654445 -220.55501902 91.99523462 -217.64677429 91.15684509 C-206.8637773 88.04112426 -196.20924313 84.55008546 -185.5625 81 C-184.58466553 80.67430023 -183.60683105 80.34860046 -182.59936523 80.01303101 C-164.18605491 73.86324095 -146.02336549 67.20795671 -128 60 C-126.78070801 59.51499023 -125.56141602 59.02998047 -124.30517578 58.53027344 C-104.51269305 50.61969866 -85.14522731 41.83432151 -65.82409668 32.84759521 C-64.18746533 32.08710872 -62.54939092 31.32972963 -60.91113281 30.57275391 C-46.83286685 24.06622902 -33.14935459 16.90799808 -19.5390625 9.4765625 C-17.89587036 8.5808252 -17.89587036 8.5808252 -16.21948242 7.66699219 C-14.05843985 6.48704333 -11.89968021 5.30290214 -9.7434082 4.11425781 C-8.76460693 3.57897461 -7.78580566 3.04369141 -6.77734375 2.4921875 C-5.90327881 2.01120605 -5.02921387 1.53022461 -4.12866211 1.03466797 C-2 0 -2 0 0 0 Z " fill="#FEFEFE" transform="translate(876,672)"/>
<path d="M0 0 C1.63582031 0.19916016 1.63582031 0.19916016 3.3046875 0.40234375 C4.02479004 0.48661621 4.74489258 0.57088867 5.48681641 0.65771484 C7.09654985 0.84630149 8.70560439 1.04076433 10.31396484 1.24072266 C14.55072354 1.73688997 18.6546932 2.04927037 22.921875 1.93359375 C34.56662393 1.70282709 34.56662393 1.70282709 38.58984375 5.34375 C40.62616995 8.47283739 42.29249838 11.68201391 44 15 C46.82705673 18.81752203 49.8839269 22.41594523 53 26 C53.80824219 26.93585937 53.80824219 26.93585937 54.6328125 27.890625 C68.82136766 43.14866924 88.53674764 51.05289511 108 57 C97.37306853 86.38346552 67.57634836 114.87327739 46.61230469 137.27001953 C44.87034264 139.13912054 43.14163864 141.01994204 41.4140625 142.90234375 C30.69280905 154.54855689 30.69280905 154.54855689 24.84375 159.40625 C22.6677109 161.28723295 20.69277678 163.31323655 18.6875 165.375 C14.61013956 169.50840663 10.26089765 173.14128188 5.73046875 176.765625 C3.18699831 178.84697706 0.78042747 181.01201315 -1.625 183.25 C-8.68700688 189.66697318 -16.36767176 195.28813618 -24 201 C-24.77617676 201.58507324 -25.55235352 202.17014648 -26.35205078 202.77294922 C-48.95633071 219.79948922 -72.99520833 234.7454275 -98 248 C-99.54083252 248.81742676 -99.54083252 248.81742676 -101.11279297 249.65136719 C-175.73451401 288.87381026 -261.13680489 311.46125541 -356.75 312.1875 C-357.73277924 312.18689575 -358.71555847 312.1862915 -359.7281189 312.18566895 C-427.33798533 312.07350221 -493.8740513 299.30914532 -557.0625 275.3125 C-557.77670105 275.04222992 -558.4909021 274.77195984 -559.22674561 274.49349976 C-568.09028381 271.12200673 -576.60490368 267.43430238 -585 263 C-579.58492809 255.68723032 -579.58492809 255.68723032 -577.1015625 252.76953125 C-563.61264609 236.85474252 -555.36936549 215.54161796 -554.71875 194.66796875 C-554.68007813 193.60255859 -554.64140625 192.53714844 -554.6015625 191.43945312 C-554.53326799 189.25271553 -554.49735044 187.06475083 -554.4921875 184.87695312 C-554.12957905 177.03793097 -554.12957905 177.03793097 -550.90869141 174.07836914 C-548.32990344 172.55254977 -545.71087415 171.27286329 -543 170 C-540.68952228 168.46037092 -538.56750694 166.77487567 -536.375 165.0625 C-535.8279541 164.63864014 -535.2809082 164.21478027 -534.71728516 163.77807617 C-530.82322818 160.73372563 -527.13783106 157.51759642 -523.5859375 154.08203125 C-523.06257813 153.72496094 -522.53921875 153.36789062 -522 153 C-518.56243077 154.14585641 -518.07798728 154.90315742 -516 157.75 C-503.02514363 174.85321976 -488.13812347 190.9929669 -471 204 C-469.74091285 204.99709045 -468.48321308 205.9959342 -467.2265625 206.99609375 C-443.40354826 225.80122415 -416.57566059 240.73263451 -388 251 C-386.90679443 251.4007373 -386.90679443 251.4007373 -385.79150391 251.80957031 C-364.48958835 259.55485322 -342.46260615 264.19716571 -320 267 C-319.16364014 267.1045752 -318.32728027 267.20915039 -317.46557617 267.31689453 C-308.32089882 268.3011777 -299.12448839 268.24369554 -289.9375 268.25 C-288.60900024 268.25101212 -288.60900024 268.25101212 -287.25366211 268.25204468 C-272.3145361 268.23403559 -257.75868468 267.50289161 -243 265 C-242.01789551 264.83371094 -241.03579102 264.66742187 -240.02392578 264.49609375 C-172.82177733 252.63882854 -105.46852748 216.29136998 -64 161 C-63.07792063 159.81685202 -62.15465104 158.63463108 -61.23046875 157.453125 C-53.44698594 147.40314866 -46.53737758 136.8963841 -40 126 C-39.34668701 124.91428711 -39.34668701 124.91428711 -38.68017578 123.80664062 C-17.37918493 88.00197626 -5.4740489 47.52862998 -1.29370117 6.22875977 C-1.01200536 4.09110304 -0.56748362 2.07819695 0 0 Z " fill="#FED600" transform="translate(956,808)"/>
<path d="M0 0 C2.33873085 7.66502868 4.67119382 15.33195043 7 23 C7.41572266 24.36729248 7.41572266 24.36729248 7.83984375 25.76220703 C9.58275588 31.50146059 11.3028388 37.24705259 13 43 C13.33644531 44.13381104 13.33644531 44.13381104 13.6796875 45.29052734 C17.15209697 57.06863389 19.89083507 68.90205278 22 81 C22.22816406 82.28132812 22.45632813 83.56265625 22.69140625 84.8828125 C30.82283615 140.26751684 15.92186647 202.74068057 -17 248 C-17.69480469 248.96679688 -18.38960937 249.93359375 -19.10546875 250.9296875 C-33.47699438 270.51566048 -50.21330372 288.78600604 -70 303 C-71.04027344 303.76183594 -72.08054687 304.52367187 -73.15234375 305.30859375 C-108.56418161 330.56524449 -152.97590683 347.97419065 -196.828125 348.203125 C-198.18344582 348.21357849 -198.18344582 348.21357849 -199.56614685 348.22424316 C-202.46081258 348.24152058 -205.35528488 348.24796107 -208.25 348.25 C-209.73048325 348.25151062 -209.73048325 348.25151062 -211.24087524 348.25305176 C-225.35168541 348.24329275 -239.14815752 347.95826223 -253 345 C-253.79341797 344.83419434 -254.58683594 344.66838867 -255.40429688 344.49755859 C-262.68395353 342.94454562 -269.85234124 341.07512674 -277 339 C-277 338.67 -277 338.34 -277 338 C-275.71246826 337.75455444 -275.71246826 337.75455444 -274.39892578 337.50415039 C-265.90754072 335.79811075 -257.98310643 333.50442998 -249.875 330.4375 C-248.1273938 329.78104492 -248.1273938 329.78104492 -246.34448242 329.11132812 C-224.73660655 320.82329452 -204.9119993 309.65527215 -187 295 C-186.42507813 294.53335937 -185.85015625 294.06671875 -185.2578125 293.5859375 C-153.16912353 267.38251027 -130.51228504 229.2307419 -126.18969727 187.56152344 C-125.17970355 173.92335865 -124.86252883 159.37459138 -128 146 C-128.25652344 144.83210937 -128.51304687 143.66421875 -128.77734375 142.4609375 C-134.59351448 118.34754296 -147.98543839 95.67163358 -169.3125 82.125 C-171.81896806 80.62217009 -174.38357472 79.29991459 -177 78 C-176.16380127 77.71503662 -175.32760254 77.43007324 -174.46606445 77.13647461 C-132.46273215 62.74826259 -91.87569302 45.52625995 -52 26 C-51.2766748 25.64663574 -50.55334961 25.29327148 -49.80810547 24.92919922 C-40.44706165 20.34272898 -31.19604924 15.53896862 -21.9375 10.75 C-20.77041504 10.14687988 -19.60333008 9.54375977 -18.40087891 8.92236328 C-11.54339182 5.36920621 -11.54339182 5.36920621 -4.81640625 1.578125 C-2 0 -2 0 0 0 Z " fill="#AFE0EB" transform="translate(876,672)"/>
<path d="M0 0 C2.77715462 -0.00975638 5.55358217 -0.04094809 8.33056641 -0.07226562 C24.43674282 -0.17031176 38.92366582 1.86687345 54.15478516 7.36523438 C55.26120361 7.758479 56.36762207 8.15172363 57.50756836 8.55688477 C77.6119952 15.85609228 95.89687429 25.15852736 111.27978516 40.24023438 C112.23570557 41.16763428 112.23570557 41.16763428 113.2109375 42.11376953 C120.9327189 49.6209104 128.54622904 57.09906667 135.18994141 65.59179688 C137.12623204 68.04563809 139.14454587 70.40630002 141.19970703 72.76074219 C171.83988129 108.06355166 192.51054683 151.59430878 203.46728516 196.80273438 C203.8245166 198.22573853 203.8245166 198.22573853 204.18896484 199.67749023 C208.81082373 219.61857495 209.78219399 240.0960766 209.67089844 260.49169922 C209.65472489 264.00332048 209.67091766 267.51380229 209.68994141 271.02539062 C209.70371053 285.34515068 208.65345261 299.12340993 206.27978516 313.24023438 C206.05716861 314.62037043 205.83496835 316.00057372 205.61328125 317.38085938 C205.03327613 320.88208172 204.41571241 324.3737886 203.77978516 327.86523438 C203.48007813 329.56873047 203.48007813 329.56873047 203.17431641 331.30664062 C199.57487537 351.32136687 199.57487537 351.32136687 195.09228516 360.55273438 C194.79040283 361.17462646 194.48852051 361.79651855 194.17749023 362.43725586 C193.22595757 364.3791045 192.25467014 366.31002078 191.27978516 368.24023438 C190.96879883 368.86865234 190.6578125 369.49707031 190.33740234 370.14453125 C183.38442278 384.13713186 174.45269469 396.39739999 164.27978516 408.24023438 C163.43802734 409.22894531 162.59626953 410.21765625 161.72900391 411.23632812 C142.30895663 433.56866957 112.87840833 447.23753436 87.27978516 461.24023438 C86.2364502 461.81338379 85.19311523 462.3865332 84.11816406 462.97705078 C55.78719291 478.5133898 26.93720619 492.45674491 -2.72021484 505.24023438 C-3.37139282 505.52102844 -4.0225708 505.80182251 -4.69348145 506.09112549 C-23.09487189 514.0089144 -41.76301242 521.11332307 -60.57472229 527.98233032 C-64.77594236 529.51822787 -68.96396068 531.08562536 -73.14616394 532.67253113 C-79.11884392 534.93575532 -85.06580147 537.07975294 -91.22021484 538.80273438 C-92.65807619 539.21162208 -94.09556868 539.62180878 -95.53271484 540.03320312 C-96.58652344 540.33363525 -96.58652344 540.33363525 -97.66162109 540.64013672 C-100.86616673 541.57428914 -104.04103868 542.59856033 -107.22021484 543.61523438 C-117.28375761 546.80350722 -127.46517923 549.5794358 -137.640625 552.38476562 C-140.41505872 553.1554661 -143.18358111 553.94370074 -145.95068359 554.74023438 C-173.21625966 562.51047623 -201.0984536 568.04763147 -229.05957031 572.63378906 C-231.51021222 573.03977776 -233.95731185 573.4677276 -236.40039062 573.91699219 C-237.54878418 574.11905273 -238.69717773 574.32111328 -239.88037109 574.52929688 C-240.88849854 574.71443848 -241.89662598 574.89958008 -242.93530273 575.09033203 C-246.12386424 575.26196145 -247.84650862 574.56265818 -250.72021484 573.24023438 C-252.15925976 572.86812362 -253.60806563 572.53187832 -255.06396484 572.23242188 C-279.39752588 566.98372658 -302.55806039 557.37682127 -323.72021484 544.24023438 C-320.10819867 542.03381472 -316.45765682 541.68119731 -312.33349609 541.27539062 C-311.60759277 541.19759369 -310.88168945 541.11979675 -310.13378906 541.03964233 C-308.57641447 540.87356403 -307.01866687 540.71095374 -305.46060181 540.55148315 C-303.01335913 540.30075129 -300.56728924 540.04060091 -298.12133789 539.77758789 C-294.84726526 539.4257206 -291.57293429 539.07646867 -288.29833984 538.72949219 C-273.58476029 537.16394168 -258.93203839 535.49893429 -244.390625 532.73535156 C-241.13354715 532.1314611 -237.87060237 531.56523597 -234.60693359 530.99804688 C-196.71004974 524.37341612 -158.81883836 516.22000865 -122.27954102 504.07202148 C-119.47218303 503.15962345 -116.65103656 502.30228602 -113.82568359 501.44726562 C-88.08223404 493.56178305 -62.58610406 484.55736734 -37.72021484 474.24023438 C-37.08265259 473.97700378 -36.44509033 473.71377319 -35.78820801 473.44256592 C5.12841845 456.5449286 44.9274257 437.3607652 83.27978516 415.24023438 C84.49882501 414.53932598 85.71790205 413.83848227 86.93701172 413.13769531 C90.16956216 411.2778028 93.39705854 409.40936898 96.621521 407.53549194 C97.87065646 406.81036211 99.12082265 406.08700425 100.37213135 405.3656311 C124.35424486 391.52328636 139.9091166 374.17238052 153.27978516 350.24023438 C153.78380859 349.36625 154.28783203 348.49226563 154.80712891 347.59179688 C159.51752452 338.51462114 160.63520823 328.21593428 162.27978516 318.24023438 C162.45928711 317.1820752 162.63878906 316.12391602 162.82373047 315.03369141 C163.38039366 311.74976852 163.92658847 308.46432206 164.46728516 305.17773438 C164.63429932 304.1682373 164.80131348 303.15874023 164.97338867 302.11865234 C166.94401968 289.75530084 167.45511215 277.54782882 167.40478516 265.05273438 C167.40146179 263.95483078 167.40146179 263.95483078 167.39807129 262.83474731 C167.2092237 209.64291728 152.46968645 159.74567938 121.27978516 116.24023438 C120.78478516 115.54849121 120.28978516 114.85674805 119.77978516 114.14404297 C112.76583318 104.41994744 105.25662569 95.18771958 97.27978516 86.24023438 C96.77415039 85.67143555 96.26851562 85.10263672 95.74755859 84.51660156 C81.46235841 68.52624732 67.04730517 58.30622547 47.32104492 50.09643555 C45.54861693 49.35299517 43.7930499 48.56960089 42.04101562 47.77929688 C29.85437501 42.57196899 17.27968449 41.65447747 4.21728516 41.92773438 C2.67010018 41.94482943 1.122898 41.96042584 -0.42431641 41.97460938 C-5.19056398 42.02748375 -9.95507705 42.12609715 -14.72021484 42.24023438 C-15.9040274 42.2685434 -15.9040274 42.2685434 -17.11175537 42.29742432 C-26.98393144 42.540272 -36.85244914 42.85741557 -46.72021484 43.24023438 C-46.85081299 42.36125488 -46.98141113 41.48227539 -47.1159668 40.57666016 C-47.29087646 39.41634277 -47.46578613 38.25602539 -47.64599609 37.06054688 C-47.81784424 35.91344238 -47.98969238 34.76633789 -48.16674805 33.58447266 C-49.96931933 22.69271199 -54.28883222 12.70851317 -62.72021484 5.24023438 C-65.36206026 4.44342119 -65.36206026 4.44342119 -67.72021484 4.24023438 C-67.72021484 3.91023437 -67.72021484 3.58023438 -67.72021484 3.24023438 C-63.47422952 2.9732817 -59.22821557 2.70678975 -54.98217773 2.44067383 C-53.54629793 2.35062254 -52.11042521 2.26045837 -50.67456055 2.17016602 C-47.12954763 1.94727971 -43.58442954 1.72646232 -40.0390625 1.50927734 C-37.23062046 1.33670121 -34.42329805 1.1527723 -31.61621094 0.95947266 C-21.07770237 0.25446887 -10.56126471 0.02233219 0 0 Z " fill="#AFDFEB" transform="translate(762.72021484375,183.759765625)"/>
<path d="M0 0 C27.97608678 22.61896378 48.81990719 57.81708501 65.92480469 89.05078125 C66.96679579 90.93980417 68.03241207 92.81375171 69.1015625 94.6875 C85.6232266 124.15315346 108.15111298 171.47446794 107 206 C103.17092027 207.32513895 99.33608253 208.63278588 95.5 209.9375 C94.42234375 210.31068359 93.3446875 210.68386719 92.234375 211.06835938 C72.33815074 217.80153283 49.32857811 216.62723286 29 212 C28.28199219 211.83902832 27.56398438 211.67805664 26.82421875 211.51220703 C5.09652635 206.41794402 -12.03836111 194.18816741 -28 179 C-28.5377002 178.48953125 -29.07540039 177.9790625 -29.62939453 177.453125 C-54.20860012 153.96465167 -76.35652343 121.39864096 -77.4375 86.375 C-76.97166267 67.7803266 -66.33722131 53.05941719 -53.42578125 40.46435547 C-44.73852071 32.38972559 -35.08004191 25.58023148 -25.42333984 18.73242188 C-21.12386005 15.65876596 -16.87573258 12.51554894 -12.625 9.375 C-11.82231689 8.78283691 -11.01963379 8.19067383 -10.19262695 7.58056641 C-6.78597313 5.06563607 -3.38538818 2.54351418 0 0 Z " fill="#FEFEFE" transform="translate(171,855)"/>
<path d="M0 0 C7.47668052 0.2807931 14.95300244 0.56990272 22.42919922 0.86328125 C25.7143106 0.98906153 28.99960065 1.10529196 32.28515625 1.21875 C56.98562926 2.10972043 87.35904699 3.60391993 106 22 C120.44387782 38.12938706 126.13433451 59.87952711 126.16796875 81.19921875 C126.17129715 81.95612503 126.17462555 82.71303131 126.17805481 83.49287415 C126.18308389 85.08533121 126.18546439 86.67779867 126.18530273 88.27026367 C126.18747871 90.66408359 126.20564859 93.05743379 126.22460938 95.45117188 C126.25810782 104.50249731 125.68191069 113.07732128 124 122 C123.74660321 123.59993006 123.49513816 125.20016792 123.24609375 126.80078125 C118.90647317 151.94529594 109.39533059 174.48298898 91.35449219 192.63085938 C90.18651931 193.81146353 89.04735244 195.02043896 87.9140625 196.234375 C75.14274838 209.70622534 58.56930849 220.17923032 41 226 C39.84886719 226.391875 38.69773437 226.78375 37.51171875 227.1875 C32.09663045 228.95368962 27.71445235 230.08873835 22 230 C19.3562596 222.73280444 16.73564461 215.45766265 14.13671875 208.17431641 C13.20570537 205.57443754 12.26134339 202.980106 11.3125 200.38671875 C4.4311234 181.16679426 0.43870809 160.93023467 -2.8125 140.8125 C-3.007229 139.61020752 -3.20195801 138.40791504 -3.40258789 137.16918945 C-3.97731733 133.45078364 -4.49978799 129.72915216 -5 126 C-5.1398381 125.00117798 -5.1398381 125.00117798 -5.28250122 123.98217773 C-7.22461019 109.78437715 -7.33975687 95.61763764 -7.31567383 81.30517578 C-7.31252211 77.40238253 -7.33603057 73.50035605 -7.36132812 69.59765625 C-7.40148861 53.50975861 -6.33312302 37.91274826 -4 22 C-3.71067889 19.95956691 -3.42201769 17.91904014 -3.1340332 15.87841797 C-1.23011681 2.46023362 -1.23011681 2.46023362 0 0 Z " fill="#FEFEFE" transform="translate(1114,576)"/>
<path d="M0 0 C4.0248776 2.50082756 7.68209729 5.31985733 11.26953125 8.41015625 C11.87539063 8.920625 12.48125 9.43109375 13.10546875 9.95703125 C23.85809905 19.78522727 28.29761484 32.8611249 32.26953125 46.41015625 C32.60339844 47.52648437 32.93726563 48.6428125 33.28125 49.79296875 C34.30918822 53.32352449 35.29522379 56.8645382 36.26953125 60.41015625 C39.64196226 72.68267838 43.04215491 84.92277897 46.95703125 97.03515625 C47.80817438 99.6985701 48.65758656 102.36252617 49.50585938 105.02685547 C49.98517475 106.52272397 50.47001915 108.01684394 50.96289062 109.50830078 C56.75590593 127.1859098 55.6528259 144.0690757 47.63671875 160.7890625 C39.70711889 175.99123824 27.56925362 186.05198143 11.76953125 192.34765625 C-3.01329437 196.83529974 -20.89364922 196.37462733 -34.73046875 189.41015625 C-35.62636719 188.96414063 -36.52226562 188.518125 -37.4453125 188.05859375 C-56.04434382 177.79903564 -65.19205766 161.68801948 -70.97216797 141.99267578 C-71.83173326 139.06528311 -72.70465142 136.1420223 -73.578125 133.21875 C-77.17162988 121.16606615 -80.70767242 109.09669701 -84.21289062 97.01806641 C-85.60484 92.23062852 -87.01472494 87.44985823 -88.46484375 82.6796875 C-88.87935791 81.31444946 -88.87935791 81.31444946 -89.30224609 79.92163086 C-89.81999602 78.22218362 -90.34091544 76.52369717 -90.86572266 74.82641602 C-96.13764713 57.52825827 -94.68351992 41.0089401 -86.66796875 24.78515625 C-77.45640987 8.64524538 -63.85351282 -0.78092193 -46.4609375 -6.703125 C-31.05480626 -10.36510593 -13.80585601 -7.48675773 0 0 Z " fill="#FEFEFE" transform="translate(435.73046875,423.58984375)"/>
<path d="M0 0 C0.89396484 -0.00773437 1.78792969 -0.01546875 2.70898438 -0.0234375 C16.28832073 0.01629721 28.64658613 5.13590197 39.4375 13.25 C40.04078125 13.68828125 40.6440625 14.1265625 41.265625 14.578125 C56.17409274 26.26314026 60.95465269 44.34719937 65.64453125 61.74609375 C67.28759192 67.8035886 69.12801994 73.77999425 71.0625 79.75 C73.54819749 87.44486671 75.95745843 95.14822855 78.171875 102.92578125 C79.06760678 106.05432015 80.05350893 109.14183106 81.078125 112.23046875 C87.25111586 131.34959321 88.09248947 149.8960126 79.3125 168.375 C75.86622182 174.9555775 71.74043719 180.08661379 66.4375 185.25 C65.84710937 185.87261719 65.25671875 186.49523437 64.6484375 187.13671875 C53.63477266 197.93205103 39.0058504 202.1956217 24 202.5 C5.8304987 202.13367941 -9.53757178 196.29560271 -22.5625 183.25 C-32.18210736 172.51573972 -36.97614314 160.47042744 -40.43359375 146.640625 C-41.82827738 141.0933791 -43.4534818 135.61312736 -45.0625 130.125 C-45.36978027 129.07626709 -45.67706055 128.02753418 -45.99365234 126.94702148 C-48.57711333 118.15756245 -51.2302974 109.39463856 -54.03125 100.671875 C-54.29413818 99.84921143 -54.55702637 99.02654785 -54.82788086 98.17895508 C-55.33820041 96.58391342 -55.85173479 94.98989455 -56.36938477 93.3972168 C-59.74587285 82.84441813 -62.1300501 73.01643675 -62.0625 61.875 C-62.05750488 60.78372803 -62.05250977 59.69245605 -62.04736328 58.56811523 C-61.86036855 49.89736277 -60.57742728 43.03556003 -56.5625 35.25 C-56.11648438 34.35667969 -55.67046875 33.46335937 -55.2109375 32.54296875 C-47.17259669 17.92576241 -33.49516752 6.5329384 -17.48803711 1.61230469 C-11.65017592 0.15784475 -5.99450819 -0.05208841 0 0 Z " fill="#FEFEFE" transform="translate(698.5625,328.75)"/>
<path d="M0 0 C1.43769492 2.87538984 0.5361081 4.84170328 0 8 C-2.09663098 56.46630686 34.01110607 106.1585542 65 141 C65.45616699 141.51788086 65.91233398 142.03576172 66.38232422 142.56933594 C81.27590407 159.42822191 101.31283185 177.98164022 124 183 C124 183.33 124 183.66 124 184 C106.28906678 186.68150882 87.45678188 185.97354868 70 182 C69.28199219 181.83902832 68.56398438 181.67805664 67.82421875 181.51220703 C46.09652635 176.41794402 28.96163889 164.18816741 13 149 C12.4622998 148.48953125 11.92459961 147.9790625 11.37060547 147.453125 C-13.20860012 123.96465167 -35.35652343 91.39864096 -36.4375 56.375 C-35.98792989 38.42965967 -26.17940033 24.45670244 -14 12 C-9.5074063 7.7945181 -4.77975335 3.87264688 0 0 Z " fill="#AFE0EB" transform="translate(130,885)"/>
<path d="M0 0 C6.01031919 -0.2865956 11.30018102 0.75471029 17.125 2.1875 C18.05425293 2.41526123 18.98350586 2.64302246 19.94091797 2.87768555 C36.51913524 7.05754026 50.30481962 13.19020116 60 28 C65.43797748 37.19330209 68.9517639 46.51012188 71 57 C71.26707764 58.34940674 71.26707764 58.34940674 71.53955078 59.72607422 C73.07207634 68.39769401 73.30829592 76.87196773 73.26074219 85.64746094 C73.25001367 87.99700717 73.26070561 90.34578916 73.2734375 92.6953125 C73.28197712 101.65631866 72.65177818 110.16670969 71 119 C70.74687736 120.59997346 70.4954318 122.20021364 70.24609375 123.80078125 C65.90647317 148.94529594 56.39533059 171.48298898 38.35449219 189.63085938 C37.18651931 190.81146353 36.04735244 192.02043896 34.9140625 193.234375 C27.03532699 201.54527744 17.70124759 208.1603104 7.9375 214.0625 C7.30642334 214.44462646 6.67534668 214.82675293 6.02514648 215.22045898 C3.07926918 216.95302418 0.39978931 218.44891196 -3 219 C-1.71289233 216.37948062 -0.35273048 213.82796085 1.1015625 211.296875 C11.0179352 193.60756888 17.18352346 175.05672684 20 155 C20.37196467 152.99943326 20.74673786 150.99938559 21.125 149 C23.6079439 133.57611314 23.20492161 117.70080833 23.1875 102.125 C23.18656342 101.04383911 23.18562683 99.96267822 23.18466187 98.84875488 C23.84567138 49.17915788 23.84567138 49.17915788 2.34765625 5.796875 C0.89309103 3.85745471 0.41402764 2.36886703 0 0 Z " fill="#AFE0EB" transform="translate(1167,579)"/>
<path d="M0 0 C13.15043263 -0.32559531 26.15558444 0.3808631 39.23974609 1.73193359 C41.56431695 1.95768795 43.87586167 2.11048998 46.20703125 2.23828125 C49.79905553 2.65226309 51.87750986 3.18046325 55 5 C56.54964428 7.37781238 57.7254367 9.4933031 58.890625 12.046875 C59.2289888 12.75701752 59.5673526 13.46716003 59.91596985 14.19882202 C63.6724674 22.20336342 66.97753848 30.3893552 70.1875 38.625 C70.66181961 39.83323929 70.66181961 39.83323929 71.14572144 41.06588745 C80.71551285 65.48629123 89.70543846 90.34647155 96.39697266 115.72607422 C97.03074241 118.11592503 97.69141808 120.49730389 98.35546875 122.87890625 C101.1913873 133.16308539 103.56394358 143.42349686 105 154 C105.18691406 155.18722656 105.37382813 156.37445313 105.56640625 157.59765625 C106.00275426 162.32015691 106.02682067 165.54191465 103.2421875 169.49609375 C100.33764807 172.26860866 97.23309928 174.6350182 94 177 C92.39906599 178.22137302 90.80025396 179.44553049 89.203125 180.671875 C84.9335559 183.92929317 80.62617757 187.1312586 76.29785156 190.31005859 C74.30338114 191.77688013 72.31748786 193.2540899 70.3359375 194.73828125 C69.35882812 195.46402344 68.38171875 196.18976563 67.375 196.9375 C66.55773437 197.54464844 65.74046875 198.15179688 64.8984375 198.77734375 C63 200 63 200 61 200 C60.98541748 199.13648926 60.97083496 198.27297852 60.95581055 197.38330078 C60.60074742 178.43070835 59.68896659 159.79310841 57 141 C56.88398437 140.16484863 56.76796875 139.32969727 56.6484375 138.46923828 C49.82811722 90.32055284 29.63761465 43.97043124 2.1328125 4.15625 C0 1 0 1 0 0 Z " fill="#AEDFEA" transform="translate(947,254)"/>
<path d="M0 0 C0.01458252 0.75168457 0.02916504 1.50336914 0.04418945 2.27783203 C0.8340962 39.20527487 4.12925379 75.81296133 16 111 C16.29632324 111.90621094 16.59264648 112.81242188 16.89794922 113.74609375 C26.03943025 141.68708501 38.54987545 168.67645215 55.05078125 193.0625 C57 196 57 196 57 197 C48.1878661 197.20786306 39.51440179 196.67128381 30.75244141 195.828125 C28.60785827 195.62336333 26.46232769 195.43235095 24.31640625 195.2421875 C22.93221479 195.11279895 21.54809701 194.98261924 20.1640625 194.8515625 C18.31482178 194.67874756 18.31482178 194.67874756 16.42822266 194.50244141 C13.04417091 194.0064737 10.15343668 193.32190824 7 192 C5.39074088 189.75575275 4.31441368 187.91021987 3.1875 185.4375 C2.85548584 184.73842529 2.52347168 184.03935059 2.18139648 183.3190918 C-12.62799771 151.11771057 -48.00299788 65.12859948 -37 28 C-33.65110129 23.50838043 -29.43659483 20.33590899 -25 17 C-23.77095947 16.05543945 -23.77095947 16.05543945 -22.51708984 15.09179688 C-2.87397027 0 -2.87397027 0 0 0 Z " fill="#FDFDFD" transform="translate(136,497)"/>
<path d="M0 0 C0.05543528 1.93715495 0.09341948 3.87480936 0.125 5.8125 C0.14820313 6.89144531 0.17140625 7.97039062 0.1953125 9.08203125 C-0.26761314 18.36831963 -2.74581715 27.3445136 -5.0625 36.3125 C-5.59728246 38.3913546 -6.12990453 40.47076639 -6.66015625 42.55078125 C-6.89355713 43.45481689 -7.12695801 44.35885254 -7.36743164 45.2902832 C-12.14621146 65.7610193 -8.58522877 87.63029239 -5 108 C-4.66489247 109.99970349 -4.33109475 111.99962819 -4 114 C-8.31270236 113.85980449 -12.62510461 113.71181808 -16.9375 113.5625 C-18.14986328 113.52318359 -19.36222656 113.48386719 -20.61132812 113.44335938 C-24.07595638 113.3212993 -27.53747382 113.17119099 -31 113 C-31.89404541 112.96044189 -32.78809082 112.92088379 -33.70922852 112.88012695 C-42.41334941 112.25434048 -46.55641137 106.75062188 -52.234375 100.56640625 C-57.09530383 94.85572858 -60.2466086 88.94751085 -63 82 C-63.350625 81.16855469 -63.70125 80.33710938 -64.0625 79.48046875 C-69.20444753 65.87573258 -68.26464991 50.34853541 -63 37 C-55.66731727 21.47978811 -42.89347628 8.36951968 -26.9609375 1.734375 C-18.4599638 -1.20270107 -8.73666693 -2.91222231 0 0 Z " fill="#FDFDFD" transform="translate(1177,429)"/>
<path d="M0 0 C13.20442547 9.90825349 21.31356758 23.79985307 24 40 C24.88296206 50.59033863 25.78648663 64.32962731 21 74 C17.75163018 77.6661855 14.04374081 80.26695549 10 83 C8.77648497 83.88455261 7.55654133 84.77406197 6.33984375 85.66796875 C1.34691528 89.31667232 -3.64501519 92.89130095 -9 96 C-9.1952124 95.4831665 -9.3904248 94.96633301 -9.59155273 94.43383789 C-20.95389806 64.59656286 -36.67102137 43.03270743 -59.30517578 20.79077148 C-61.17400683 18.95215963 -63.03654799 17.10735594 -64.8984375 15.26171875 C-65.46718597 14.7064299 -66.03593445 14.15114105 -66.62191772 13.57902527 C-69.60269613 10.61720267 -72.15429784 7.8359523 -74 4 C-72.30636505 -1.62823809 -67.1789207 -4.80611355 -62.26953125 -7.49609375 C-42.37981169 -16.04794637 -17.61775964 -11.96368794 0 0 Z " fill="#FDFDFE" transform="translate(113,764)"/>
<path d="M0 0 C4.0248776 2.50082756 7.68209729 5.31985733 11.26953125 8.41015625 C11.87539063 8.920625 12.48125 9.43109375 13.10546875 9.95703125 C23.85809905 19.78522727 28.29761484 32.8611249 32.26953125 46.41015625 C32.60339844 47.52648437 32.93726563 48.6428125 33.28125 49.79296875 C34.30918822 53.32352449 35.29522379 56.8645382 36.26953125 60.41015625 C39.64196226 72.68267838 43.04215491 84.92277897 46.95703125 97.03515625 C47.80817438 99.6985701 48.65758656 102.36252617 49.50585938 105.02685547 C49.98517475 106.52272397 50.47001915 108.01684394 50.96289062 109.50830078 C56.75590593 127.1859098 55.6528259 144.0690757 47.63671875 160.7890625 C39.70711889 175.99123824 27.56925362 186.05198143 11.76953125 192.34765625 C-3.01329437 196.83529974 -20.89364922 196.37462733 -34.73046875 189.41015625 C-35.62636719 188.96414063 -36.52226562 188.518125 -37.4453125 188.05859375 C-56.04434382 177.79903564 -65.19205766 161.68801948 -70.97216797 141.99267578 C-71.83173326 139.06528311 -72.70465142 136.1420223 -73.578125 133.21875 C-77.17162988 121.16606615 -80.70767242 109.09669701 -84.21289062 97.01806641 C-85.60484 92.23062852 -87.01472494 87.44985823 -88.46484375 82.6796875 C-88.87935791 81.31444946 -88.87935791 81.31444946 -89.30224609 79.92163086 C-89.81999602 78.22218362 -90.34091544 76.52369717 -90.86572266 74.82641602 C-96.13764713 57.52825827 -94.68351992 41.0089401 -86.66796875 24.78515625 C-77.45640987 8.64524538 -63.85351282 -0.78092193 -46.4609375 -6.703125 C-31.05480626 -10.36510593 -13.80585601 -7.48675773 0 0 Z M-49.73046875 5.41015625 C-51.19613281 5.87808594 -51.19613281 5.87808594 -52.69140625 6.35546875 C-64.98530769 10.36361744 -74.98025573 19.27050588 -80.96484375 30.78515625 C-86.58797987 43.17235466 -85.67203958 55.58534369 -81.73046875 68.41015625 C-81.27611493 69.94104208 -80.82309706 71.47232477 -80.37109375 73.00390625 C-79.08980247 77.32284672 -77.78566432 81.63458556 -76.47705078 85.9453125 C-75.40269956 89.49228764 -74.34232667 93.04321137 -73.29296875 96.59765625 C-73.09372803 97.27207764 -72.8944873 97.94649902 -72.68920898 98.64135742 C-71.46986045 102.80033491 -70.29448338 106.96972852 -69.14453125 111.1484375 C-60.19865571 151.06634528 -60.19865571 151.06634528 -34.76953125 180.8671875 C-27.662483 184.47552177 -21.12224178 185.9698565 -13.16796875 185.91015625 C-12.30316895 185.90661133 -11.43836914 185.90306641 -10.54736328 185.89941406 C-1.96957864 185.68185584 5.32815505 183.48165265 13.26953125 180.41015625 C14.213125 180.09949219 15.15671875 179.78882813 16.12890625 179.46875 C27.91188264 175.38861998 35.88694068 166.82793692 41.55078125 155.94921875 C49.21336684 139.47465973 44.48690482 123.76205026 39.21435547 107.37158203 C38.07004259 103.7848856 36.99952313 100.17928135 35.93554688 96.56811523 C33.76681494 89.21375917 31.48029521 81.90040977 29.14453125 74.59765625 C27.39567704 69.12762273 25.76558269 63.66105587 24.33203125 58.09765625 C17.26374082 28.8488707 17.26374082 28.8488707 -2.73046875 7.5859375 C-10.83258411 3.40322044 -18.23665834 1.01553958 -27.35546875 1.03515625 C-28.53798218 1.03757324 -28.53798218 1.03757324 -29.74438477 1.04003906 C-36.91176351 1.18852543 -43.04332594 2.85175069 -49.73046875 5.41015625 Z " fill="#6BC9DE" transform="translate(435.73046875,423.58984375)"/>
<path d="M0 0 C0.89396484 -0.00773437 1.78792969 -0.01546875 2.70898438 -0.0234375 C16.28832073 0.01629721 28.64658613 5.13590197 39.4375 13.25 C40.04078125 13.68828125 40.6440625 14.1265625 41.265625 14.578125 C56.17409274 26.26314026 60.95465269 44.34719937 65.64453125 61.74609375 C67.28759192 67.8035886 69.12801994 73.77999425 71.0625 79.75 C73.54819749 87.44486671 75.95745843 95.14822855 78.171875 102.92578125 C79.06760678 106.05432015 80.05350893 109.14183106 81.078125 112.23046875 C87.25111586 131.34959321 88.09248947 149.8960126 79.3125 168.375 C75.86622182 174.9555775 71.74043719 180.08661379 66.4375 185.25 C65.84710937 185.87261719 65.25671875 186.49523437 64.6484375 187.13671875 C53.63477266 197.93205103 39.0058504 202.1956217 24 202.5 C5.8304987 202.13367941 -9.53757178 196.29560271 -22.5625 183.25 C-32.18210736 172.51573972 -36.97614314 160.47042744 -40.43359375 146.640625 C-41.82827738 141.0933791 -43.4534818 135.61312736 -45.0625 130.125 C-45.36978027 129.07626709 -45.67706055 128.02753418 -45.99365234 126.94702148 C-48.57711333 118.15756245 -51.2302974 109.39463856 -54.03125 100.671875 C-54.29413818 99.84921143 -54.55702637 99.02654785 -54.82788086 98.17895508 C-55.33820041 96.58391342 -55.85173479 94.98989455 -56.36938477 93.3972168 C-59.74587285 82.84441813 -62.1300501 73.01643675 -62.0625 61.875 C-62.05750488 60.78372803 -62.05250977 59.69245605 -62.04736328 58.56811523 C-61.86036855 49.89736277 -60.57742728 43.03556003 -56.5625 35.25 C-56.11648438 34.35667969 -55.67046875 33.46335937 -55.2109375 32.54296875 C-47.17259669 17.92576241 -33.49516752 6.5329384 -17.48803711 1.61230469 C-11.65017592 0.15784475 -5.99450819 -0.05208841 0 0 Z M-35.5625 21.25 C-36.47 21.86875 -37.3775 22.4875 -38.3125 23.125 C-47.66939412 31.96206667 -53.49519493 43.98565308 -53.9375 56.8125 C-53.82093797 63.74065557 -52.37617408 69.67688749 -50.21728516 76.22900391 C-48.94662584 80.1508972 -47.80021938 84.11119551 -46.625 88.0625 C-46.10475019 89.79444622 -45.5839192 91.52621798 -45.0625 93.2578125 C-43.74235754 97.64879395 -42.42526882 102.04058767 -41.125 106.4375 C-40.92495361 107.11353271 -40.72490723 107.78956543 -40.51879883 108.48608398 C-39.30601106 112.61866899 -38.14317962 116.76235864 -37.01171875 120.91796875 C-33.91763493 132.25509739 -30.63856754 143.51189971 -27 154.6875 C-26.4726123 156.34724854 -26.4726123 156.34724854 -25.93457031 158.04052734 C-20.61874142 174.06367549 -12.4894966 183.67527515 2.48046875 191.2890625 C16.01718932 196.89226985 31.25971362 192.67160422 44.4375 188.25 C45.92443359 187.78400391 45.92443359 187.78400391 47.44140625 187.30859375 C60.58625926 182.72126633 68.51886096 172.61538938 74.45703125 160.546875 C80.74060908 145.82678032 75.44938033 129.34963198 70.4296875 115.18310547 C68.69612976 110.05836073 67.29780377 104.84287763 65.875 99.625 C61.73620714 84.62762422 57.29728706 69.73297741 52.54443359 54.91845703 C51.44151715 51.47645975 50.38046461 48.04349254 49.41796875 44.55859375 C45.88949217 31.84106329 39.39272158 21.55278982 27.8515625 14.71875 C7.92081413 4.42418928 -17.60142402 7.92280503 -35.5625 21.25 Z " fill="#6BCADE" transform="translate(698.5625,328.75)"/>
<path d="M0 0 C13.15043263 -0.32559531 26.15558444 0.3808631 39.23974609 1.73193359 C41.56431695 1.95768795 43.87586167 2.11048998 46.20703125 2.23828125 C51.17837538 2.81123011 53.90253746 3.63791565 57.08984375 7.59375 C59.02607541 10.90099308 60.42109911 14.38729044 61.80419922 17.95458984 C62.98725638 20.96754513 64.23502858 23.94551392 65.49893188 26.92510986 C66.73336617 29.84708804 67.94374785 32.77862254 69.14819336 35.71307373 C69.75379828 37.18645633 70.36377217 38.65805131 70.97827148 40.12774658 C74.85096039 49.45891918 77.35901304 56.33925731 73.87109375 66.1875 C68.79075358 76.15437991 62.34249122 85.02423103 52 90 C50.01196957 90.39855503 48.01166307 90.74638059 46 91 C43.66294827 85.47197378 41.35860867 79.93532593 39.16796875 74.34765625 C29.39959685 49.45264074 17.3449586 26.29913989 2.16796875 4.2265625 C0 1 0 1 0 0 Z " fill="#FDFDFD" transform="translate(947,254)"/>
<path d="M0 0 C1.65996061 2.48994092 2.55336168 4.25370366 3.5234375 7.0078125 C12.36570699 31.47142476 23.73496475 55.49167847 38.6015625 76.91015625 C40 79 40 79 40 80 C31.1878661 80.20786306 22.51440179 79.67128381 13.75244141 78.828125 C11.60785827 78.62336333 9.46232769 78.43235095 7.31640625 78.2421875 C5.93221479 78.11279895 4.54809701 77.98261924 3.1640625 77.8515625 C1.93123535 77.73635254 0.6984082 77.62114258 -0.57177734 77.50244141 C-3.95582909 77.0064737 -6.84656332 76.32190824 -10 75 C-11.60920025 72.75583485 -12.68564369 70.91015345 -13.8125 68.4375 C-14.14378906 67.73987549 -14.47507813 67.04225098 -14.81640625 66.32348633 C-35 22.43075971 -35 22.43075971 -35 6 C-34.15574463 5.94054199 -34.15574463 5.94054199 -33.29443359 5.87988281 C-21.72918073 5.0266891 -11.01691036 3.81425804 0 0 Z " fill="#AEDFEA" transform="translate(153,614)"/>
<path d="M0 0 C0.17390259 1.69527832 0.17390259 1.69527832 0.35131836 3.42480469 C0.78264624 7.62204916 1.21777749 11.81889213 1.65405273 16.015625 C1.84226411 17.83127302 2.02944698 19.64702797 2.21557617 21.46289062 C2.48345265 24.07450767 2.75503812 26.68571652 3.02734375 29.296875 C3.10967758 30.10743347 3.19201141 30.91799194 3.27684021 31.75311279 C3.64721133 35.27356152 4.13935445 38.55741779 5 42 C5 44.97 5 47.94 5 51 C-12.49 51.66 -29.98 52.32 -48 53 C-50.30067568 24.24155405 -50.30067568 24.24155405 -50.125 13.4375 C-50.11597656 12.31021484 -50.10695313 11.18292969 -50.09765625 10.02148438 C-50.07489794 7.3473828 -50.04264504 4.67384397 -50 2 C-45.77279186 1.70734114 -41.54511589 1.42304679 -37.31689453 1.14550781 C-35.88771509 1.05063246 -34.45866867 0.95372483 -33.02978516 0.85449219 C-22.00502485 0.09093988 -11.05001864 -0.11646923 0 0 Z " fill="#FCFCFC" transform="translate(1071,674)"/>
<path d="M0 0 C1.19165039 1.38256836 1.19165039 1.38256836 2.34765625 3.33984375 C2.78335938 4.06526367 3.2190625 4.79068359 3.66796875 5.53808594 C4.12816406 6.32989258 4.58835937 7.12169922 5.0625 7.9375 C5.54203125 8.74348633 6.0215625 9.54947266 6.515625 10.37988281 C7.51814741 12.06851471 8.515613 13.76015783 9.50830078 15.45458984 C10.94116899 17.89961177 12.38806064 20.33570428 13.83984375 22.76953125 C18.70736832 30.95912602 18.70736832 30.95912602 21 35 C21.6084375 36.06734375 22.216875 37.1346875 22.84375 38.234375 C24 41 24 41 24.0859375 43.140625 C22.36102153 46.09407824 19.57392558 47.23636951 16.625 48.75 C15.188058 49.52093784 13.75333953 50.2960279 12.3203125 51.07421875 C11.49950195 51.51942871 10.67869141 51.96463867 9.83300781 52.42333984 C3.98376915 55.67862968 -1.74944421 59.1368859 -7.5 62.5625 C-8.73609135 63.29732504 -9.97225535 64.03202789 -11.20849609 64.76660156 C-14.14014091 66.50915051 -17.07045991 68.25391437 -20 70 C-22.74948325 67.58428936 -24.07340702 65.1072009 -25.6015625 61.80078125 C-26.08786133 60.7631665 -26.57416016 59.72555176 -27.07519531 58.65649414 C-27.58663086 57.55297607 -28.09806641 56.44945801 -28.625 55.3125 C-32.58766527 46.88244466 -36.67728322 38.62317063 -41.40869141 30.59692383 C-44 26.17934235 -44 26.17934235 -44 24 C-43.29093506 23.59273682 -42.58187012 23.18547363 -41.85131836 22.76586914 C-39.14768288 21.21207328 -36.44467753 19.6571891 -33.74221802 18.10134888 C-32.54240658 17.41070205 -31.34243589 16.72033181 -30.14230347 16.03024292 C-22.455228 11.60855713 -14.78498325 7.16519685 -7.27905273 2.43969727 C-4.58643757 0.77929862 -3.23778291 0 0 0 Z " fill="#FCFCFD" transform="translate(305,889)"/>
<path d="M0 0 C2.73757685 2.73757685 3.25480744 5.86337691 4.25 9.5 C5.60716928 14.34345655 7.01426062 19.14045663 8.6953125 23.8828125 C8.9747168 24.67623047 9.25412109 25.46964844 9.54199219 26.28710938 C10.08499824 27.81109118 10.63980354 29.33093581 11.20800781 30.84570312 C13.39475272 37.03438976 13.11099541 41.73821867 10.43359375 47.796875 C9.78221168 49.12155107 9.11624016 50.43913118 8.4375 51.75 C8.07817383 52.4502832 7.71884766 53.15056641 7.34863281 53.87207031 C-1.18835436 70.11844153 -13.71643137 83.41372413 -30 92 C-30.99 92 -31.98 92 -33 92 C-33.45890625 90.865625 -33.9178125 89.73125 -34.390625 88.5625 C-35.01025123 87.04159926 -35.63005228 85.52076972 -36.25 84 C-36.55035156 83.25621094 -36.85070312 82.51242187 -37.16015625 81.74609375 C-38.70747473 77.96010173 -40.33595295 74.34108616 -42.296875 70.75 C-43.516119 68.31692685 -43.99626301 67.11048507 -44.08984375 64.34375 C-42.55955535 61.05280719 -40.1954179 58.90960446 -37.5625 56.5 C-22.32013215 41.83986885 -10.96876864 23.39460092 -2.42578125 4.1484375 C-1 1 -1 1 0 0 Z " fill="#FCFCFC" transform="translate(403,845)"/>
<path d="M0 0 C0.16491943 0.59087402 0.32983887 1.18174805 0.49975586 1.79052734 C4.2912981 15.28681256 8.45445072 28.58499635 13.15405273 41.79443359 C13.52473877 42.83937988 13.8954248 43.88432617 14.27734375 44.9609375 C14.60984131 45.88696777 14.94233887 46.81299805 15.28491211 47.76708984 C16 50 16 50 16 52 C-3.13883613 52.56382823 -20.06236232 49.16397694 -34.5625 35.9375 C-41.78709512 28.31153849 -52 13.01556749 -52 2 C-46.84482621 1.71021896 -41.68939871 1.4256368 -36.53369141 1.14550781 C-34.78622019 1.04987027 -33.03882105 0.95290468 -31.29150391 0.85449219 C-20.84651232 0.26722358 -10.46516038 -0.15564791 0 0 Z " fill="#FCFCFC" transform="translate(1084,760)"/>
<path d="M0 0 C4.62965112 16.97538744 5.38676342 35.58348295 -2.625 51.5625 C-8.99756618 62.58107502 -19.12482956 72.99992824 -31 78 C-32.83598007 73.8730361 -33.74561859 69.71635478 -34.625 65.3125 C-36.58557288 55.91093412 -39.41579675 46.82040721 -42.35791016 37.68481445 C-42.69870605 36.61577881 -43.03950195 35.54674316 -43.390625 34.4453125 C-43.70032227 33.49156738 -44.01001953 32.53782227 -44.32910156 31.55517578 C-45 29 -45 29 -45 25 C-43.95211304 24.39696045 -43.95211304 24.39696045 -42.88305664 23.78173828 C-40.20709223 22.24125125 -37.53150172 20.70011741 -34.85620117 19.15847778 C-33.66360215 18.47133735 -32.47089437 17.78438563 -31.27807617 17.09762573 C-25.35435736 13.68651256 -19.43378656 10.27169576 -13.55859375 6.77734375 C-12.77669678 6.31247559 -11.9947998 5.84760742 -11.18920898 5.36865234 C-9.75802644 4.51476291 -8.32904861 3.65716445 -6.90258789 2.79541016 C-2.21772093 0 -2.21772093 0 0 0 Z " fill="#FCFCFD" transform="translate(343,967)"/>
<path d="M0 0 C4.46524951 1.28491282 8.27748894 3.14325357 12.31591797 5.3762207 C29.12960874 14.67273431 46.26817477 19.99266612 65 24 C66.55181729 29.11226388 67.66696882 34.17329289 68.5625 39.4375 C68.68818359 40.14970703 68.81386719 40.86191406 68.94335938 41.59570312 C69.77400867 46.38389619 70.42872258 51.17406596 71 56 C49.67497393 56.7504408 32.71437337 53.7064506 14 43 C13.30124756 42.60586914 12.60249512 42.21173828 11.88256836 41.80566406 C9.14995537 39.18468032 8.79565812 36.64771296 7.9296875 32.98828125 C7.76252228 32.30122604 7.59535706 31.61417084 7.42312622 30.90629578 C6.89257548 28.71154432 6.38347974 26.51245809 5.875 24.3125 C5.52615986 22.85187361 5.17591339 21.39158233 4.82421875 19.93164062 C4.17333329 17.22232367 3.53240895 14.51137622 2.89794922 11.7980957 C1.96595651 7.85600472 0.98993747 3.92787794 0 0 Z " fill="#FCFCFC" transform="translate(921,698)"/>
<path d="M0 0 C-0.47430317 7.06462087 -1.10632001 14.09366655 -1.9375 21.125 C-3.37182155 33.37945064 -4.14782148 45.6941037 -5 58 C-19.67789752 58.71451184 -34.3045475 59.14630428 -49 59 C-48.45683993 53.68528182 -47.12802292 49.20015666 -44.9375 44.3125 C-44.62731934 43.61624512 -44.31713867 42.91999023 -43.99755859 42.20263672 C-39.06128005 31.46013139 -32.2586951 22.42005504 -24 14 C-23.38769531 13.36320313 -22.77539062 12.72640625 -22.14453125 12.0703125 C-17.11177484 7.24144175 -7.27547286 0 0 0 Z " fill="#FCFBFC" transform="translate(1076,580)"/>
<path d="M0 0 C1.01835937 0.32871094 2.03671875 0.65742187 3.0859375 0.99609375 C14.5807665 5.01789228 27.87206758 11.62561149 36 21 C36 21.66 36 22.32 36 23 C34.79053711 23.68775513 34.79053711 23.68775513 33.55664062 24.3894043 C30.5291808 26.11202198 27.50259414 27.83615493 24.4765625 29.5612793 C23.1735171 30.30373834 21.87013914 31.04561407 20.56640625 31.78686523 C18.67878185 32.86023448 16.79250219 33.93594043 14.90625 35.01171875 C14.29628174 35.35741913 13.68631348 35.70311951 13.05786133 36.05929565 C9.72106157 37.96303672 6.51423438 39.97769047 3.34375 42.14453125 C2.2403125 42.75683594 1.136875 43.36914062 0 44 C-4.33924978 42.52130419 -6.23247371 39.21672897 -8.6875 35.5625 C-13.16351026 29.1050475 -17.92927761 23.00634168 -23 17 C-23.96762506 15.84520049 -24.93506399 14.690245 -25.90234375 13.53515625 C-26.89273225 12.35635316 -27.8836106 11.17796144 -28.875 10 C-29.33962646 9.44755615 -29.80425293 8.8951123 -30.28295898 8.32592773 C-32.43395104 5.78527746 -34.58954305 3.29871391 -37 1 C-36.67 0.01 -36.34 -0.98 -36 -2 C-25.65607243 -5.89730313 -10.05307843 -3.49733855 0 0 Z " fill="#FCFCFD" transform="translate(243,839)"/>
<path d="M0 0 C22.33314787 4.44324408 39.9403436 20.74239104 57 35 C57.88776123 35.73911621 57.88776123 35.73911621 58.79345703 36.49316406 C65.31811783 41.93312516 71.71031451 47.47419351 77.87890625 53.3203125 C79.99881718 54.99906333 81.35638395 55.60435678 84 56 C82.57638147 59.4217041 80.94992702 61.08040466 77.96484375 63.2421875 C77.15466797 63.83386719 76.34449219 64.42554688 75.50976562 65.03515625 C74.66091797 65.64230469 73.81207031 66.24945312 72.9375 66.875 C72.11572266 67.47441406 71.29394531 68.07382812 70.44726562 68.69140625 C65.05637839 72.60202626 59.56882409 76.34789917 54 80 C53.7071814 79.22474976 53.7071814 79.22474976 53.40844727 78.43383789 C43.15607995 51.5113413 30.04620908 30.74380689 9.4375 10.4375 C7.64229344 8.66763157 5.84919376 6.89562256 4.05859375 5.12109375 C3.27798584 4.3520874 2.49737793 3.58308105 1.69311523 2.79077148 C0 1 0 1 0 0 Z " fill="#AFDFEA" transform="translate(50,780)"/>
<path d="M0 0 C1.41479194 4.48742663 0.08360306 7.95301335 -1.25 12.3125 C-1.72061536 13.95482483 -2.18802911 15.59807024 -2.65234375 17.2421875 C-2.8829248 18.05526367 -3.11350586 18.86833984 -3.35107422 19.70605469 C-10.036333 43.33836904 -7.19852733 67.14579723 -3 91 C-2.66489247 92.99970349 -2.33109475 94.99962819 -2 97 C-6.31270236 96.85980449 -10.62510461 96.71181808 -14.9375 96.5625 C-16.14986328 96.52318359 -17.36222656 96.48386719 -18.61132812 96.44335938 C-25.12486148 96.2138853 -31.53474481 95.82995185 -38 95 C-22.81075073 25.8400148 -22.81075073 25.8400148 -2 3 C-1.34 2.01 -0.68 1.02 0 0 Z " fill="#AFDFEB" transform="translate(1175,446)"/>
<path d="M0 0 C2.17450862 3.73673574 3.02385048 7.75331479 3.98828125 11.921875 C4.36913556 13.52213662 4.74999512 15.122397 5.13085938 16.72265625 C5.7179763 19.21626488 6.30320266 21.71030768 6.88745117 24.20458984 C7.45795749 26.63234889 8.03374617 29.05875582 8.61328125 31.484375 C8.80294464 32.28033081 8.99260803 33.07628662 9.1880188 33.8963623 C10.67920662 40.01136233 12.47456801 45.99587877 14.54841614 51.93890381 C15.67792888 55.3026295 16.36907671 57.63239813 15 61 C3.07261697 54.4483389 -3.17938105 47.8609637 -8.109375 35.13671875 C-10.79976572 25.66135143 -9.49426843 16.4225545 -5.484375 7.5859375 C-3.8924782 4.8126857 -2.06107881 2.43982407 0 0 Z " fill="#F9F9FB" transform="translate(71,583)"/>
<path d="M0 0 C9.44304393 2.87309634 17.13809691 7.8148772 22.1484375 16.5234375 C27.96613165 27.50298686 29.75803164 36.77899071 26.1875 48.8125 C24.89103645 52.89064779 23.47447406 56.48637673 21 60 C20.34 60 19.68 60 19 60 C18.68289063 58.82050781 18.36578125 57.64101563 18.0390625 56.42578125 C15.00122419 45.3610437 11.56026225 34.46697406 7.8125 23.625 C7.17078857 21.76355347 7.17078857 21.76355347 6.51611328 19.86450195 C4.05517631 12.7731575 4.05517631 12.7731575 1.19921875 5.8359375 C0 3 0 3 0 0 Z " fill="#FBFBFC" transform="translate(1055,291)"/>
<path d="M0 0 C0.33 0 0.66 0 1 0 C3.82841141 10.60654277 1.5126337 21.29241264 -3.51171875 30.88671875 C-4.24841797 31.93279297 -4.24841797 31.93279297 -5 33 C-5.66 33 -6.32 33 -7 33 C-8.65 26.73 -10.3 20.46 -12 14 C-10.02 13.01 -8.04 12.02 -6 11 C-2.70385439 8.28983583 -1.21162287 6.86277016 -0.1875 2.6875 C-0.0946875 1.3571875 -0.0946875 1.3571875 0 0 Z " fill="#ABD8E5" transform="translate(1081,318)"/>
<path d="M0 0 C1.95216435 3.90432869 2.50639991 6.72213252 3 11 C1.37025436 10.23925157 -0.25366648 9.46601567 -1.875 8.6875 C-2.77992187 8.25824219 -3.68484375 7.82898438 -4.6171875 7.38671875 C-7 6 -7 6 -9 3 C-6.03 2.01 -3.06 1.02 0 0 Z " fill="#A7D3E1" transform="translate(84,633)"/>
<path d="M0 0 C1.98 0.66 3.96 1.32 6 2 C5.67 2.66 5.34 3.32 5 4 C3.35 3.67 1.7 3.34 0 3 C0 2.01 0 1.02 0 0 Z " fill="#FED700" transform="translate(57,693)"/>
</svg>
